<svg xmlns="http://www.w3.org/2000/svg" viewBox="1573 1060 60 60"><defs><style>.a{fill:#fff;}.b{opacity:0.1;}.c{fill:#fba400;}.d{fill:#6648a2;}</style></defs><g transform="translate(1573 1060)"><circle class="a" cx="29" cy="29" r="29" transform="translate(1 1)"/><path class="b" d="M60,30A30,30,0,1,1,30,0,29.96,29.96,0,0,1,60,30ZM30,1A29,29,0,1,0,59,30,29.021,29.021,0,0,0,30,1Z"/><g transform="translate(15.848 10.652)"><g transform="translate(-0.005 0)"><path class="c" d="M29.987,40.485a4.083,4.083,0,0,1-2.886-1.2L16.608,28.8a4.083,4.083,0,0,1,0-5.778L27.1,12.528a4.086,4.086,0,0,1,5.778,5.778l-7.609,7.6,7.6,7.6a4.083,4.083,0,0,1-2.886,6.969Z" transform="translate(-4.92 -3.62)"/><path class="d" d="M4.082,40.485A4.083,4.083,0,0,1,1.2,33.51l7.6-7.6-7.6-7.6a4.086,4.086,0,0,1,5.778-5.778L17.461,23.022a4.083,4.083,0,0,1,0,5.778L6.967,39.287A4.083,4.083,0,0,1,4.082,40.485Z" transform="translate(0.005 -3.62)"/><circle class="c" cx="4.777" cy="4.777" r="4.777" transform="translate(9.803)"/></g></g></g>
</svg>
